<svg width="161" height="13" viewBox="0 0 161 13" fill="none" xmlns="http://www.w3.org/2000/svg">
<path d="M5.36016 10.039C4.71016 10.039 4.10782 9.922 3.55316 9.688C2.99849 9.454 2.51316 9.129 2.09716 8.713C1.68116 8.28833 1.35616 7.79867 1.12216 7.244C0.896823 6.68933 0.784156 6.09133 0.784156 5.45C0.784156 4.80867 0.901156 4.21067 1.13516 3.656C1.36916 3.10133 1.69416 2.616 2.11016 2.2C2.52616 1.77533 3.01149 1.446 3.56616 1.212C4.12949 0.978 4.73616 0.861 5.38616 0.861C6.03616 0.861 6.63849 0.978 7.19316 1.212C7.75649 1.43733 8.24182 1.758 8.64916 2.174C9.06516 2.59 9.38582 3.07533 9.61116 3.63C9.84516 4.176 9.96216 4.774 9.96216 5.424C9.96216 6.074 9.84516 6.68067 9.61116 7.244C9.37716 7.79867 9.04782 8.28833 8.62316 8.713C8.20716 9.129 7.72182 9.454 7.16716 9.688C6.61249 9.922 6.01016 10.039 5.36016 10.039ZM5.36016 9.454C5.92349 9.454 6.44782 9.35 6.93316 9.142C7.41849 8.934 7.84316 8.648 8.20716 8.284C8.57116 7.92 8.85282 7.49533 9.05216 7.01C9.25149 6.516 9.35116 5.98733 9.35116 5.424C9.35116 4.86067 9.25149 4.33633 9.05216 3.851C8.85282 3.36567 8.57549 2.94533 8.22016 2.59C7.86482 2.23467 7.44449 1.95733 6.95916 1.758C6.48249 1.55 5.95816 1.446 5.38616 1.446C4.81416 1.446 4.28116 1.55 3.78716 1.758C3.30182 1.95733 2.88149 2.24333 2.52616 2.616C2.17082 2.98 1.89349 3.40467 1.69416 3.89C1.49482 4.36667 1.39516 4.88667 1.39516 5.45C1.39516 6.01333 1.49482 6.53767 1.69416 7.023C1.89349 7.50833 2.17082 7.933 2.52616 8.297C2.88149 8.661 3.30182 8.947 3.78716 9.155C4.27249 9.35433 4.79682 9.454 5.36016 9.454ZM5.50316 8.128C4.97449 8.128 4.50216 8.01533 4.08616 7.79C3.67016 7.56467 3.34516 7.25267 3.11116 6.854C2.87716 6.44667 2.76016 5.97867 2.76016 5.45C2.76016 4.92133 2.87716 4.45767 3.11116 4.059C3.34516 3.65167 3.67016 3.33533 4.08616 3.11C4.50216 2.88467 4.97449 2.772 5.50316 2.772C5.96249 2.772 6.37416 2.86733 6.73816 3.058C7.11082 3.24 7.40116 3.49567 7.60916 3.825L6.86816 4.358C6.70349 4.11533 6.49982 3.93767 6.25716 3.825C6.02316 3.71233 5.76749 3.656 5.49016 3.656C5.15216 3.656 4.85316 3.734 4.59316 3.89C4.34182 4.03733 4.13816 4.24533 3.98216 4.514C3.82616 4.774 3.74816 5.086 3.74816 5.45C3.74816 5.814 3.82616 6.13033 3.98216 6.399C4.13816 6.659 4.34182 6.867 4.59316 7.023C4.85316 7.17033 5.15216 7.244 5.49016 7.244C5.76749 7.244 6.02316 7.18767 6.25716 7.075C6.49982 6.96233 6.70349 6.78467 6.86816 6.542L7.60916 7.062C7.40116 7.39133 7.11082 7.65133 6.73816 7.842C6.37416 8.03267 5.96249 8.128 5.50316 8.128ZM14.5552 10V9.116L18.2602 5.541C18.5896 5.229 18.8322 4.956 18.9882 4.722C19.1529 4.47933 19.2612 4.25833 19.3132 4.059C19.3739 3.851 19.4042 3.65167 19.4042 3.461C19.4042 2.993 19.2396 2.62467 18.9102 2.356C18.5809 2.08733 18.0999 1.953 17.4672 1.953C16.9819 1.953 16.5442 2.03533 16.1542 2.2C15.7642 2.356 15.4262 2.603 15.1402 2.941L14.2562 2.174C14.6029 1.732 15.0666 1.394 15.6472 1.16C16.2366 0.917333 16.8822 0.796 17.5842 0.796C18.2169 0.796 18.7672 0.9 19.2352 1.108C19.7032 1.30733 20.0629 1.59767 20.3142 1.979C20.5742 2.36033 20.7042 2.811 20.7042 3.331C20.7042 3.62567 20.6652 3.916 20.5872 4.202C20.5092 4.488 20.3619 4.79133 20.1452 5.112C19.9286 5.43267 19.6166 5.79233 19.2092 6.191L15.9072 9.376L15.5952 8.869H21.0942V10H14.5552ZM25.8684 10.104C25.1577 10.104 24.5207 9.922 23.9574 9.558C23.4027 9.194 22.9607 8.66533 22.6314 7.972C22.3107 7.27867 22.1504 6.438 22.1504 5.45C22.1504 4.462 22.3107 3.62133 22.6314 2.928C22.9607 2.23467 23.4027 1.706 23.9574 1.342C24.5207 0.978 25.1577 0.796 25.8684 0.796C26.5704 0.796 27.203 0.978 27.7664 1.342C28.3297 1.706 28.7717 2.23467 29.0924 2.928C29.413 3.62133 29.5734 4.462 29.5734 5.45C29.5734 6.438 29.413 7.27867 29.0924 7.972C28.7717 8.66533 28.3297 9.194 27.7664 9.558C27.203 9.922 26.5704 10.104 25.8684 10.104ZM25.8684 8.947C26.345 8.947 26.761 8.817 27.1164 8.557C27.4804 8.297 27.762 7.907 27.9614 7.387C28.1694 6.867 28.2734 6.22133 28.2734 5.45C28.2734 4.67867 28.1694 4.033 27.9614 3.513C27.762 2.993 27.4804 2.603 27.1164 2.343C26.761 2.083 26.345 1.953 25.8684 1.953C25.3917 1.953 24.9714 2.083 24.6074 2.343C24.2434 2.603 23.9574 2.993 23.7494 3.513C23.55 4.033 23.4504 4.67867 23.4504 5.45C23.4504 6.22133 23.55 6.867 23.7494 7.387C23.9574 7.907 24.2434 8.297 24.6074 8.557C24.9714 8.817 25.3917 8.947 25.8684 8.947ZM32.3553 10V1.42L32.9143 2.031H30.3013V0.899999H33.6423V10H32.3553ZM39.4548 10.104C38.6488 10.104 37.9598 9.92633 37.3878 9.571C36.8158 9.21567 36.3781 8.70433 36.0748 8.037C35.7801 7.361 35.6328 6.53767 35.6328 5.567C35.6328 4.53567 35.8148 3.66467 36.1788 2.954C36.5428 2.24333 37.0498 1.706 37.6998 1.342C38.3498 0.978 39.0951 0.796 39.9358 0.796C40.3691 0.796 40.7808 0.839333 41.1708 0.926C41.5695 1.01267 41.9118 1.147 42.1978 1.329L41.7038 2.343C41.4698 2.17833 41.2011 2.06567 40.8978 2.005C40.6031 1.94433 40.2911 1.914 39.9618 1.914C39.0345 1.914 38.2978 2.20433 37.7518 2.785C37.2058 3.357 36.9328 4.21067 36.9328 5.346C36.9328 5.528 36.9415 5.74467 36.9588 5.996C36.9761 6.24733 37.0195 6.49433 37.0888 6.737L36.6468 6.295C36.7768 5.89633 36.9805 5.56267 37.2578 5.294C37.5438 5.01667 37.8818 4.813 38.2718 4.683C38.6705 4.54433 39.0995 4.475 39.5588 4.475C40.1655 4.475 40.7028 4.58767 41.1708 4.813C41.6388 5.03833 42.0071 5.359 42.2758 5.775C42.5445 6.18233 42.6788 6.66767 42.6788 7.231C42.6788 7.81167 42.5358 8.31867 42.2498 8.752C41.9638 9.18533 41.5781 9.519 41.0928 9.753C40.6075 9.987 40.0615 10.104 39.4548 10.104ZM39.4028 9.051C39.8015 9.051 40.1481 8.97733 40.4428 8.83C40.7461 8.68267 40.9845 8.479 41.1578 8.219C41.3311 7.95033 41.4178 7.63833 41.4178 7.283C41.4178 6.74567 41.2315 6.321 40.8588 6.009C40.4861 5.68833 39.9791 5.528 39.3378 5.528C38.9218 5.528 38.5578 5.606 38.2458 5.762C37.9338 5.918 37.6868 6.13033 37.5048 6.399C37.3315 6.659 37.2448 6.958 37.2448 7.296C37.2448 7.608 37.3271 7.89833 37.4918 8.167C37.6565 8.427 37.8991 8.63933 38.2198 8.804C38.5405 8.96867 38.9348 9.051 39.4028 9.051ZM43.8367 6.971V5.892H47.3337V6.971H43.8367ZM48.3882 10V9.116L52.0932 5.541C52.4226 5.229 52.6652 4.956 52.8212 4.722C52.9859 4.47933 53.0942 4.25833 53.1462 4.059C53.2069 3.851 53.2372 3.65167 53.2372 3.461C53.2372 2.993 53.0726 2.62467 52.7432 2.356C52.4139 2.08733 51.9329 1.953 51.3002 1.953C50.8149 1.953 50.3772 2.03533 49.9872 2.2C49.5972 2.356 49.2592 2.603 48.9732 2.941L48.0892 2.174C48.4359 1.732 48.8996 1.394 49.4802 1.16C50.0696 0.917333 50.7152 0.796 51.4172 0.796C52.0499 0.796 52.6002 0.9 53.0682 1.108C53.5362 1.30733 53.8959 1.59767 54.1472 1.979C54.4072 2.36033 54.5372 2.811 54.5372 3.331C54.5372 3.62567 54.4982 3.916 54.4202 4.202C54.3422 4.488 54.1949 4.79133 53.9782 5.112C53.7616 5.43267 53.4496 5.79233 53.0422 6.191L49.7402 9.376L49.4282 8.869H54.9272V10H48.3882ZM59.7014 10.104C58.9907 10.104 58.3537 9.922 57.7904 9.558C57.2357 9.194 56.7937 8.66533 56.4644 7.972C56.1437 7.27867 55.9834 6.438 55.9834 5.45C55.9834 4.462 56.1437 3.62133 56.4644 2.928C56.7937 2.23467 57.2357 1.706 57.7904 1.342C58.3537 0.978 58.9907 0.796 59.7014 0.796C60.4034 0.796 61.036 0.978 61.5994 1.342C62.1627 1.706 62.6047 2.23467 62.9254 2.928C63.246 3.62133 63.4064 4.462 63.4064 5.45C63.4064 6.438 63.246 7.27867 62.9254 7.972C62.6047 8.66533 62.1627 9.194 61.5994 9.558C61.036 9.922 60.4034 10.104 59.7014 10.104ZM59.7014 8.947C60.178 8.947 60.594 8.817 60.9494 8.557C61.3134 8.297 61.595 7.907 61.7944 7.387C62.0024 6.867 62.1064 6.22133 62.1064 5.45C62.1064 4.67867 62.0024 4.033 61.7944 3.513C61.595 2.993 61.3134 2.603 60.9494 2.343C60.594 2.083 60.178 1.953 59.7014 1.953C59.2247 1.953 58.8044 2.083 58.4404 2.343C58.0764 2.603 57.7904 2.993 57.5824 3.513C57.383 4.033 57.2834 4.67867 57.2834 5.45C57.2834 6.22133 57.383 6.867 57.5824 7.387C57.7904 7.907 58.0764 8.297 58.4404 8.557C58.8044 8.817 59.2247 8.947 59.7014 8.947ZM64.5113 10V9.116L68.2163 5.541C68.5456 5.229 68.7883 4.956 68.9443 4.722C69.1089 4.47933 69.2173 4.25833 69.2693 4.059C69.3299 3.851 69.3603 3.65167 69.3603 3.461C69.3603 2.993 69.1956 2.62467 68.8663 2.356C68.5369 2.08733 68.0559 1.953 67.4233 1.953C66.9379 1.953 66.5003 2.03533 66.1103 2.2C65.7203 2.356 65.3823 2.603 65.0963 2.941L64.2123 2.174C64.5589 1.732 65.0226 1.394 65.6033 1.16C66.1926 0.917333 66.8383 0.796 67.5403 0.796C68.1729 0.796 68.7233 0.9 69.1913 1.108C69.6593 1.30733 70.0189 1.59767 70.2703 1.979C70.5303 2.36033 70.6603 2.811 70.6603 3.331C70.6603 3.62567 70.6213 3.916 70.5433 4.202C70.4653 4.488 70.3179 4.79133 70.1013 5.112C69.8846 5.43267 69.5726 5.79233 69.1653 6.191L65.8633 9.376L65.5513 8.869H71.0503V10H64.5113ZM71.9761 10V9.116L75.6811 5.541C76.0105 5.229 76.2531 4.956 76.4091 4.722C76.5738 4.47933 76.6821 4.25833 76.7341 4.059C76.7948 3.851 76.8251 3.65167 76.8251 3.461C76.8251 2.993 76.6605 2.62467 76.3311 2.356C76.0018 2.08733 75.5208 1.953 74.8881 1.953C74.4028 1.953 73.9651 2.03533 73.5751 2.2C73.1851 2.356 72.8471 2.603 72.5611 2.941L71.6771 2.174C72.0238 1.732 72.4875 1.394 73.0681 1.16C73.6575 0.917333 74.3031 0.796 75.0051 0.796C75.6378 0.796 76.1881 0.9 76.6561 1.108C77.1241 1.30733 77.4838 1.59767 77.7351 1.979C77.9951 2.36033 78.1251 2.811 78.1251 3.331C78.1251 3.62567 78.0861 3.916 78.0081 4.202C77.9301 4.488 77.7828 4.79133 77.5661 5.112C77.3495 5.43267 77.0375 5.79233 76.6301 6.191L73.3281 9.376L73.0161 8.869H78.5151V10H71.9761ZM85.6102 10.078C85.0382 10.078 84.4922 10 83.9722 9.844C83.4608 9.688 83.0578 9.49733 82.7632 9.272L83.2832 8.284C83.5778 8.48333 83.9418 8.65233 84.3752 8.791C84.8085 8.92967 85.2505 8.999 85.7012 8.999C86.2818 8.999 86.6978 8.91667 86.9492 8.752C87.2092 8.58733 87.3392 8.35767 87.3392 8.063C87.3392 7.84633 87.2612 7.67733 87.1052 7.556C86.9492 7.43467 86.7412 7.34367 86.4812 7.283C86.2298 7.22233 85.9482 7.17033 85.6362 7.127C85.3242 7.075 85.0122 7.01433 84.7002 6.945C84.3882 6.867 84.1022 6.763 83.8422 6.633C83.5822 6.49433 83.3742 6.308 83.2182 6.074C83.0622 5.83133 82.9842 5.51067 82.9842 5.112C82.9842 4.696 83.1012 4.332 83.3352 4.02C83.5692 3.708 83.8985 3.46967 84.3232 3.305C84.7565 3.13167 85.2678 3.045 85.8572 3.045C86.3078 3.045 86.7628 3.10133 87.2222 3.214C87.6902 3.318 88.0715 3.46967 88.3662 3.669L87.8332 4.657C87.5212 4.449 87.1962 4.306 86.8582 4.228C86.5202 4.15 86.1822 4.111 85.8442 4.111C85.2982 4.111 84.8908 4.202 84.6222 4.384C84.3535 4.55733 84.2192 4.78267 84.2192 5.06C84.2192 5.294 84.2972 5.476 84.4532 5.606C84.6178 5.72733 84.8258 5.82267 85.0772 5.892C85.3372 5.96133 85.6232 6.022 85.9352 6.074C86.2472 6.11733 86.5592 6.178 86.8712 6.256C87.1832 6.32533 87.4648 6.425 87.7162 6.555C87.9762 6.685 88.1842 6.867 88.3402 7.101C88.5048 7.335 88.5872 7.647 88.5872 8.037C88.5872 8.453 88.4658 8.81267 88.2232 9.116C87.9805 9.41933 87.6382 9.65767 87.1962 9.831C86.7542 9.99567 86.2255 10.078 85.6102 10.078ZM92.5129 10.078C91.8195 10.078 91.2822 9.89167 90.9009 9.519C90.5195 9.14633 90.3289 8.61333 90.3289 7.92V1.602H91.5769V7.868C91.5769 8.24067 91.6679 8.52667 91.8499 8.726C92.0405 8.92533 92.3092 9.025 92.6559 9.025C93.0459 9.025 93.3709 8.91667 93.6309 8.7L94.0209 9.597C93.8302 9.76167 93.6005 9.883 93.3319 9.961C93.0719 10.039 92.7989 10.078 92.5129 10.078ZM89.1589 4.137V3.11H93.5529V4.137H89.1589ZM99.8067 10V8.544L99.7417 8.271V5.788C99.7417 5.25933 99.5857 4.852 99.2737 4.566C98.9703 4.27133 98.511 4.124 97.8957 4.124C97.4883 4.124 97.0897 4.19333 96.6997 4.332C96.3097 4.462 95.9803 4.63967 95.7117 4.865L95.1917 3.929C95.547 3.643 95.9717 3.42633 96.4657 3.279C96.9683 3.123 97.4927 3.045 98.0387 3.045C98.9833 3.045 99.7113 3.27467 100.223 3.734C100.734 4.19333 100.99 4.89533 100.99 5.84V10H99.8067ZM97.5447 10.078C97.0333 10.078 96.5827 9.99133 96.1927 9.818C95.8113 9.64467 95.5167 9.40633 95.3087 9.103C95.1007 8.791 94.9967 8.44 94.9967 8.05C94.9967 7.67733 95.0833 7.33933 95.2567 7.036C95.4387 6.73267 95.729 6.49 96.1277 6.308C96.535 6.126 97.081 6.035 97.7657 6.035H99.9497V6.932H97.8177C97.1937 6.932 96.7733 7.036 96.5567 7.244C96.34 7.452 96.2317 7.70333 96.2317 7.998C96.2317 8.336 96.366 8.609 96.6347 8.817C96.9033 9.01633 97.276 9.116 97.7527 9.116C98.2207 9.116 98.628 9.012 98.9747 8.804C99.33 8.596 99.5857 8.29267 99.7417 7.894L99.9887 8.752C99.824 9.15933 99.5337 9.48433 99.1177 9.727C98.7017 9.961 98.1773 10.078 97.5447 10.078ZM103.299 10V3.11H104.495V4.982L104.378 4.514C104.569 4.03733 104.89 3.67333 105.34 3.422C105.791 3.17067 106.346 3.045 107.004 3.045V4.254C106.952 4.24533 106.9 4.241 106.848 4.241C106.805 4.241 106.762 4.241 106.718 4.241C106.051 4.241 105.522 4.44033 105.132 4.839C104.742 5.23767 104.547 5.814 104.547 6.568V10H103.299ZM111.188 10.078C110.494 10.078 109.957 9.89167 109.576 9.519C109.194 9.14633 109.004 8.61333 109.004 7.92V1.602H110.252V7.868C110.252 8.24067 110.343 8.52667 110.525 8.726C110.715 8.92533 110.984 9.025 111.331 9.025C111.721 9.025 112.046 8.91667 112.306 8.7L112.696 9.597C112.505 9.76167 112.275 9.883 112.007 9.961C111.747 10.039 111.474 10.078 111.188 10.078ZM107.834 4.137V3.11H112.228V4.137H107.834ZM117.103 10.078C116.514 10.078 115.994 9.96967 115.543 9.753C115.101 9.53633 114.755 9.207 114.503 8.765C114.261 8.31433 114.139 7.751 114.139 7.075V3.11H115.387V6.932C115.387 7.608 115.548 8.115 115.868 8.453C116.198 8.791 116.657 8.96 117.246 8.96C117.68 8.96 118.057 8.87333 118.377 8.7C118.698 8.518 118.945 8.258 119.118 7.92C119.292 7.57333 119.378 7.15733 119.378 6.672V3.11H120.626V10H119.443V8.141L119.638 8.635C119.413 9.09433 119.075 9.44967 118.624 9.701C118.174 9.95233 117.667 10.078 117.103 10.078ZM126.655 10.078C126.083 10.078 125.559 9.948 125.082 9.688C124.614 9.41933 124.237 9.025 123.951 8.505C123.674 7.985 123.535 7.335 123.535 6.555C123.535 5.775 123.67 5.125 123.938 4.605C124.216 4.085 124.588 3.695 125.056 3.435C125.533 3.175 126.066 3.045 126.655 3.045C127.331 3.045 127.929 3.19233 128.449 3.487C128.969 3.78167 129.381 4.19333 129.684 4.722C129.988 5.242 130.139 5.853 130.139 6.555C130.139 7.257 129.988 7.87233 129.684 8.401C129.381 8.92967 128.969 9.34133 128.449 9.636C127.929 9.93067 127.331 10.078 126.655 10.078ZM123.002 12.522V3.11H124.198V4.969L124.12 6.568L124.25 8.167V12.522H123.002ZM126.551 8.986C126.993 8.986 127.388 8.88633 127.734 8.687C128.09 8.48767 128.367 8.206 128.566 7.842C128.774 7.46933 128.878 7.04033 128.878 6.555C128.878 6.061 128.774 5.63633 128.566 5.281C128.367 4.917 128.09 4.63533 127.734 4.436C127.388 4.23667 126.993 4.137 126.551 4.137C126.118 4.137 125.724 4.23667 125.368 4.436C125.022 4.63533 124.744 4.917 124.536 5.281C124.337 5.63633 124.237 6.061 124.237 6.555C124.237 7.04033 124.337 7.46933 124.536 7.842C124.744 8.206 125.022 8.48767 125.368 8.687C125.724 8.88633 126.118 8.986 126.551 8.986ZM131.549 6.971V5.892H135.046V6.971H131.549ZM136.967 10V3.11H138.215V10H136.967ZM137.591 1.784C137.349 1.784 137.145 1.706 136.98 1.55C136.824 1.394 136.746 1.20333 136.746 0.978C136.746 0.744 136.824 0.549 136.98 0.393C137.145 0.237 137.349 0.159 137.591 0.159C137.834 0.159 138.033 0.237 138.189 0.393C138.354 0.540333 138.436 0.726666 138.436 0.951999C138.436 1.186 138.358 1.38533 138.202 1.55C138.046 1.706 137.843 1.784 137.591 1.784ZM142.964 10.078C142.271 10.078 141.733 9.89167 141.352 9.519C140.971 9.14633 140.78 8.61333 140.78 7.92V1.602H142.028V7.868C142.028 8.24067 142.119 8.52667 142.301 8.726C142.492 8.92533 142.76 9.025 143.107 9.025C143.497 9.025 143.822 8.91667 144.082 8.7L144.472 9.597C144.281 9.76167 144.052 9.883 143.783 9.961C143.523 10.039 143.25 10.078 142.964 10.078ZM139.61 4.137V3.11H144.004V4.137H139.61ZM146.407 10.078C146.164 10.078 145.956 9.99567 145.783 9.831C145.609 9.65767 145.523 9.441 145.523 9.181C145.523 8.921 145.609 8.70867 145.783 8.544C145.956 8.37933 146.164 8.297 146.407 8.297C146.641 8.297 146.84 8.37933 147.005 8.544C147.178 8.70867 147.265 8.921 147.265 9.181C147.265 9.441 147.178 9.65767 147.005 9.831C146.84 9.99567 146.641 10.078 146.407 10.078ZM149.053 10V3.11H150.249V4.982L150.132 4.514C150.323 4.03733 150.643 3.67333 151.094 3.422C151.545 3.17067 152.099 3.045 152.758 3.045V4.254C152.706 4.24533 152.654 4.241 152.602 4.241C152.559 4.241 152.515 4.241 152.472 4.241C151.805 4.241 151.276 4.44033 150.886 4.839C150.496 5.23767 150.301 5.814 150.301 6.568V10H149.053ZM157.284 10.078C156.695 10.078 156.175 9.96967 155.724 9.753C155.282 9.53633 154.935 9.207 154.684 8.765C154.441 8.31433 154.32 7.751 154.32 7.075V3.11H155.568V6.932C155.568 7.608 155.728 8.115 156.049 8.453C156.378 8.791 156.838 8.96 157.427 8.96C157.86 8.96 158.237 8.87333 158.558 8.7C158.879 8.518 159.126 8.258 159.299 7.92C159.472 7.57333 159.559 7.15733 159.559 6.672V3.11H160.807V10H159.624V8.141L159.819 8.635C159.594 9.09433 159.256 9.44967 158.805 9.701C158.354 9.95233 157.847 10.078 157.284 10.078Z" fill="white"/>
</svg>
